<svg width="143" height="54" viewBox="0 0 143 54" fill="none" xmlns="http://www.w3.org/2000/svg">
<rect opacity="0.35" x="83.5" y="23.5" width="24" height="12" rx="3.8" stroke="white"/>
<path opacity="0.4" d="M109 27.7812V31.8567C109.805 31.5116 110.328 30.7086 110.328 29.819C110.328 28.9294 109.805 28.1264 109 27.7812Z" fill="white"/>
<rect x="85" y="25" width="21" height="9" rx="2.5" fill="white"/>
<path fill-rule="evenodd" clip-rule="evenodd" d="M67.2705 26.104C69.7576 26.1041 72.1496 27.0262 73.9521 28.6796C74.0879 28.8073 74.3048 28.8057 74.4385 28.676L75.736 27.4126C75.8037 27.3468 75.8414 27.2577 75.8409 27.165C75.8403 27.0724 75.8015 26.9837 75.733 26.9187C71.002 22.544 63.5383 22.544 58.8073 26.9187C58.7387 26.9837 58.6999 27.0723 58.6992 27.165C58.6986 27.2577 58.7363 27.3468 58.8039 27.4126L60.1018 28.676C60.2354 28.8059 60.4525 28.8075 60.5881 28.6796C62.3909 27.0261 64.7832 26.104 67.2705 26.104ZM67.2672 30.3243C68.6245 30.3242 69.9334 30.8359 70.9395 31.76C71.0756 31.8912 71.2899 31.8883 71.4226 31.7536L72.7099 30.4343C72.7777 30.3651 72.8153 30.2712 72.8143 30.1737C72.8133 30.0761 72.7738 29.9831 72.7047 29.9153C69.6408 27.0244 64.8961 27.0244 61.8323 29.9153C61.7631 29.9831 61.7236 30.0762 61.7227 30.1738C61.7218 30.2714 61.7595 30.3652 61.8274 30.4343L63.1143 31.7536C63.247 31.8883 63.4614 31.8912 63.5974 31.76C64.6029 30.8365 65.9107 30.3248 67.2672 30.3243ZM69.7916 33.1178C69.7935 33.2232 69.7565 33.3247 69.6892 33.3985L67.5125 35.8533C67.4487 35.9254 67.3617 35.966 67.2709 35.966C67.1802 35.966 67.0932 35.9254 67.0294 35.8533L64.8523 33.3985C64.7851 33.3247 64.7481 33.2231 64.7501 33.1177C64.7521 33.0124 64.7929 32.9126 64.8629 32.842C66.253 31.5281 68.2889 31.5281 69.679 32.842C69.7489 32.9127 69.7897 33.0125 69.7916 33.1178Z" fill="white"/>
<path fill-rule="evenodd" clip-rule="evenodd" d="M51.2 24.6821C51.2 24.0491 50.7224 23.5359 50.1333 23.5359H49.0667C48.4776 23.5359 48 24.0491 48 24.6821V34.6161C48 35.2491 48.4776 35.7623 49.0667 35.7623H50.1333C50.7224 35.7623 51.2 35.2491 51.2 34.6161V24.6821ZM43.7659 25.9812H44.8326C45.4217 25.9812 45.8992 26.5067 45.8992 27.1549V34.5886C45.8992 35.2368 45.4217 35.7623 44.8326 35.7623H43.7659C43.1768 35.7623 42.6992 35.2368 42.6992 34.5886V27.1549C42.6992 26.5067 43.1768 25.9812 43.7659 25.9812ZM39.4341 28.6302H38.3674C37.7783 28.6302 37.3008 29.1624 37.3008 29.8189V34.5736C37.3008 35.2301 37.7783 35.7623 38.3674 35.7623H39.4341C40.0232 35.7623 40.5008 35.2301 40.5008 34.5736V29.8189C40.5008 29.1624 40.0232 28.6302 39.4341 28.6302ZM34.1333 31.0755H33.0667C32.4776 31.0755 32 31.6001 32 32.2472V34.5906C32 35.2377 32.4776 35.7623 33.0667 35.7623H34.1333C34.7224 35.7623 35.2 35.2377 35.2 34.5906V32.2472C35.2 31.6001 34.7224 31.0755 34.1333 31.0755Z" fill="white"/>
</svg>
