<svg width="200" height="107" viewBox="0 0 200 107" fill="none" xmlns="http://www.w3.org/2000/svg">
<path d="M129.56 35.449C124.088 39.7868 118.709 43.9847 113.377 48.1827C107.858 52.5205 102.339 56.905 96.7727 61.2428C91.2067 65.6273 85.594 70.0584 79.9813 74.4429C74.5089 78.7341 69.0365 83.0719 63.5641 87.3631C57.9514 91.7476 52.3854 96.1321 46.7727 100.563C44.3873 102.476 42.0019 104.435 39.5697 106.254C39.0084 106.674 38.1665 106.953 37.4181 106.953C25.2105 107 12.956 107 0 107C45.6034 71.1312 90.6922 35.6822 136.062 0C157.343 35.5889 178.625 71.1312 200 106.86C163.471 106.86 127.222 106.86 90.4116 106.86C93.9195 104.061 97.0533 101.543 100.234 99.1173C106.408 94.313 112.582 89.5554 118.709 84.7511C120.019 83.725 121.328 83.1186 123.059 83.1186C133.817 83.2119 144.574 83.1652 155.332 83.1652C156.08 83.1652 156.829 83.1652 157.998 83.1652C148.503 67.1665 139.102 51.4477 129.56 35.449Z" fill="white"/>
</svg>
